<svg height="50px" width="100px" xmlns="http://www.w3.org/2000/svg" xmlns:xlink="http://www.w3.org/1999/xlink"
     viewBox="0 0 165.22 51.09">
    <defs>
        <style>.a{fill:url(#a);}.b{fill:url(#b);}.c{fill:url(#c);}.d{fill:#f8f6e7;}.e{fill:#2e2e30;}</style>
        <linearGradient id="a" x1="111.48" y1="125.79" x2="111.48" y2="91.4"
                        gradientTransform="translate(35.84 -117.74) rotate(45)" gradientUnits="userSpaceOnUse">
            <stop offset="0" stop-color="#db506c"/>
            <stop offset="1" stop-color="#ea8d9f"/>
        </linearGradient>
        <linearGradient id="b" x1="103.09" y1="112.89" x2="67.15" y2="103.26"
                        gradientTransform="translate(35.84 -117.74) rotate(45)" gradientUnits="userSpaceOnUse">
            <stop offset="0" stop-color="#f66675"/>
            <stop offset="1" stop-color="#fcc48d"/>
        </linearGradient>
        <linearGradient id="c" x1="107.56" y1="117.27" x2="90.22" y2="99.92"
                        gradientTransform="translate(35.84 -117.74) rotate(45)" gradientUnits="userSpaceOnUse">
            <stop offset="0" stop-color="#4c3d69"/>
            <stop offset="1" stop-color="#c73e67"/>
        </linearGradient>
    </defs>
    <title>Brring_logo_col</title>
    <path class="a"
          d="M35.21,35.21a20.58,20.58,0,0,1-16.91,5.9A17.2,17.2,0,1,0,41.11,18.3,20.58,20.58,0,0,1,35.21,35.21Z"/>
    <path class="b" d="M6,35.21a20.52,20.52,0,0,0,12.26,5.9A17.17,17.17,0,0,1,41.11,18.3,20.62,20.62,0,1,0,6,35.21Z"/>
    <path class="c"
          d="M21.74,21.74A17.19,17.19,0,0,0,18.3,41.11,20.59,20.59,0,0,0,41.11,18.3,17.19,17.19,0,0,0,21.74,21.74Z"/>
    <circle class="d" cx="28.27" cy="32.59" r="0.98"/>
    <circle class="d" cx="32.02" cy="32.59" r="0.98"/>
    <circle class="d" cx="24.51" cy="32.59" r="0.98"/>
    <circle class="d" cx="32.02" cy="28.52" r="0.98"/>
    <circle class="d" cx="28.27" cy="28.52" r="0.98"/>
    <circle class="d" cx="24.51" cy="28.52" r="0.98"/>
    <circle class="d" cx="32.02" cy="24.45" r="0.98"/>
    <circle class="d" cx="28.27" cy="24.45" r="0.98"/>
    <circle class="d" cx="24.51" cy="24.45" r="0.98"/>
    <path class="e"
          d="M68.2,17.58a1.36,1.36,0,1,1,2.72,0v10a8.22,8.22,0,0,1,7-4.06c4.38,0,8.73,3.46,8.73,9.47v.07c0,6-4.31,9.51-8.73,9.51a8.24,8.24,0,0,1-7-3.89V41a1.35,1.35,0,0,1-1.34,1.38A1.38,1.38,0,0,1,68.2,41ZM83.85,33.09V33c0-4.31-3-7.07-6.43-7.07a6.81,6.81,0,0,0-6.61,7v.07a6.8,6.8,0,0,0,6.61,7.07C81,40.12,83.85,37.51,83.85,33.09Z"/>
    <path class="e"
          d="M91,25.11a1.37,1.37,0,0,1,1.34-1.38,1.36,1.36,0,0,1,1.38,1.38v3.43c1.34-3,4-4.88,6.29-4.88A1.31,1.31,0,0,1,101.31,25a1.35,1.35,0,0,1-1.2,1.38c-3.53.42-6.43,3.07-6.43,8.34V41A1.36,1.36,0,1,1,91,41Z"/>
    <path class="e"
          d="M104.57,25.11a1.37,1.37,0,0,1,1.34-1.38,1.36,1.36,0,0,1,1.38,1.38v3.43c1.34-3,4-4.88,6.29-4.88A1.31,1.31,0,0,1,114.92,25a1.35,1.35,0,0,1-1.2,1.38c-3.53.42-6.43,3.07-6.43,8.34V41a1.36,1.36,0,1,1-2.72,0Z"/>
    <path class="e"
          d="M118.17,18.18a1.62,1.62,0,0,1,3.22,0v.46a1.62,1.62,0,0,1-3.22,0Zm.25,6.93a1.37,1.37,0,0,1,1.34-1.38,1.36,1.36,0,0,1,1.38,1.38V41a1.33,1.33,0,0,1-1.34,1.38A1.36,1.36,0,0,1,118.42,41Z"/>
    <path class="e"
          d="M126.76,25.11a1.37,1.37,0,0,1,1.34-1.38,1.36,1.36,0,0,1,1.38,1.38v2a6.92,6.92,0,0,1,6.25-3.57c4.42,0,7,3,7,7.32V41A1.36,1.36,0,1,1,140,41V31.5C140,28.11,138.18,26,135,26a5.38,5.38,0,0,0-5.48,5.72V41a1.33,1.33,0,0,1-1.34,1.38A1.36,1.36,0,0,1,126.76,41Z"/>
    <path class="e"
          d="M148.29,45.74a1.26,1.26,0,0,1-.71-1.13,1.3,1.3,0,0,1,1.24-1.2,1.1,1.1,0,0,1,.6.18,11.54,11.54,0,0,0,6.47,2c4,0,6.64-2.23,6.64-6.5V36.91a8.66,8.66,0,0,1-7.17,3.85,8.45,8.45,0,0,1-8.59-8.55v-.07a8.65,8.65,0,0,1,15.73-4.95V25.11a1.35,1.35,0,0,1,1.34-1.38,1.38,1.38,0,0,1,1.38,1.38V39a8.8,8.8,0,0,1-2.33,6.47,9.61,9.61,0,0,1-7,2.44A14.31,14.31,0,0,1,148.29,45.74ZM162.6,32.17V32.1c0-3.75-3.25-6.18-6.71-6.18a6,6,0,0,0-6.33,6.15v.07a6.18,6.18,0,0,0,6.33,6.22C159.35,38.36,162.6,35.85,162.6,32.17Z"/>
</svg>
